<svg xmlns="http://www.w3.org/2000/svg" width="47" height="47" shape-rendering="geometricPrecision" text-rendering="geometricPrecision" image-rendering="optimizeQuality" fill-rule="evenodd" clip-rule="evenodd" viewBox="0 0 2081 2081"><path fill="none" d="M0 0h2081v2081H0z"/><path fill="#CCC" d="M1650 1107c5-4 2 2 5-7l9-30c46-1 78-5 116-20l77-53c-25 0-52 7-94 0l-84-18c7-4 17-4 27-6 10-1 19-2 29-5 20-4 34-9 50-16l65-64c-30 12-56 17-96 17-20 0-90-1-97-18-8-21-7-40-24-78-10-25-23-49-37-70-29-43-66-79-109-107l-178-50c11-10 53-19 69-23 79-21 72-50 53-55-25-7-85 15-111 23l48-50c-50 4-83 29-120 52l15-38c-47 16-131 128-155 173l-99 218c-9-4-68-64-112-91-40-23-92-48-137-69-109-51-186-81-297-122-6 98 57 151 135 204l-95 12c1 42 34 85 58 106 44 38 68 38 108 54l9 4c-66 11-46 4-103 41 0 26 57 81 99 91l95 12c-6 6-16 10-24 15-10 7-14 10-21 19-13 15-20 33-11 55l110 51c-6 11-42 40-54 48-66 46-140 78-234 82-67 3-132-10-183-30-59-24-83-44-128-78 13 22 43 54 61 73 172 183 451 284 743 232 178-32 292-93 396-170 18-12 59-49 73-64 46-47 86-97 115-155 9-17 40-77 38-95z"/></svg>