<svg xmlns="http://www.w3.org/2000/svg" width="47" height="47" shape-rendering="geometricPrecision" text-rendering="geometricPrecision" image-rendering="optimizeQuality" fill-rule="evenodd" clip-rule="evenodd" viewBox="0 0 2122 2122"><path fill="none" d="M0 0h2122v2122H0z"/><path fill="#CCC" d="M916 1242c116-62 231-123 347-186-117-62-232-124-347-186v372zm135-639c141 6 275 11 409 17 31 1 64 2 95 7 68 12 117 67 127 139 15 109 22 218 20 328-2 90-8 179-22 268-10 66-64 124-127 136-23 4-47 4-70 6-188 11-375 20-563 13-112-5-223-11-335-18-68-3-131-63-142-135-19-121-26-242-22-363 2-83 8-164 21-246 11-72 72-128 144-131 157-8 314-15 465-21z"/></svg>