<svg xmlns="http://www.w3.org/2000/svg" width="20" height="20" shape-rendering="geometricPrecision" text-rendering="geometricPrecision" image-rendering="optimizeQuality" fill-rule="evenodd" clip-rule="evenodd" viewBox="0 0 5124 5124"><path fill="#333" d="M4231 1199c0 170-137 307-306 307s-306-137-306-307c0-169 137-306 306-306s306 137 306 306zM2562 3414c-470 0-851-382-851-852s381-851 851-851 851 381 851 851-381 852-851 852zm0-2163c-724 0-1311 587-1311 1311s587 1312 1311 1312c724-1 1311-588 1311-1312s-587-1311-1311-1311zM1509 24c-272 13-457 56-620 119-168 65-310 153-452 294-142 142-229 285-294 453-64 162-107 348-119 619-32 699-32 1408 0 2106 12 272 55 457 119 620 65 168 152 310 294 452s284 229 452 295c163 63 348 106 620 118 698 32 1408 32 2106 0 272-12 457-55 620-118 167-66 310-153 452-295s229-284 294-452c63-163 107-348 119-620 32-698 32-1407 0-2106-12-271-56-457-119-619-65-168-152-311-294-453-142-141-285-229-452-294-163-63-348-106-620-119-698-32-1408-32-2106 0zm2085 460c249 11 384 53 474 88 119 46 204 101 293 191 90 89 145 174 192 293 35 90 76 226 87 475 32 683 32 1379 0 2063-11 249-52 384-87 474-47 119-102 205-192 294-89 89-174 145-293 191-90 35-225 76-474 88-684 31-1380 31-2064 0-249-12-384-53-474-88-119-46-204-102-294-191-89-89-144-174-191-294-35-90-76-225-88-474-30-684-30-1379 0-2063 12-249 53-385 88-475 47-119 102-204 191-293 90-90 175-145 294-191 90-35 225-77 474-88 684-31 1380-31 2064 0z"/></svg>