<svg xmlns="http://www.w3.org/2000/svg" width="108" height="93" shape-rendering="geometricPrecision" text-rendering="geometricPrecision" image-rendering="optimizeQuality" fill-rule="evenodd" clip-rule="evenodd" viewBox="0 0 10685 9202"><path fill="#fff" fill-rule="nonzero" fill-opacity=".502" d="M10685 0v653c-969 481-1654 1045-2059 1698-400 647-603 1502-603 2554 0 279 38 469 115 552 69 88 259 133 557 133 558 0 1027 177 1414 532 386 355 576 786 576 1293 0 482-177 900-538 1255-355 355-786 532-1281 532-830 0-1508-336-2034-1014-526-672-786-1552-786-2630 0-1312 431-2484 1287-3524C8195 1001 9310 323 10685 0zM4639 0v653c-982 481-1667 1039-2066 1679-399 634-596 1496-596 2573 0 292 38 482 121 564 82 83 272 121 570 121 545 0 1008 177 1394 532 387 355 577 786 577 1293 0 482-177 900-539 1255-354 355-785 532-1280 532-830 0-1508-336-2034-1014C260 7516 0 6636 0 5558c0-1312 431-2484 1299-3524C2167 1001 3277 323 4639 0z"/></svg>