<svg xmlns="http://www.w3.org/2000/svg" width="47" height="47" shape-rendering="geometricPrecision" text-rendering="geometricPrecision" image-rendering="optimizeQuality" fill-rule="evenodd" clip-rule="evenodd" viewBox="0 0 2002 2002"><path fill="none" d="M0 0h2002v2002H0z"/><path fill="#CCC" d="M264 634c8-7 18-12 30-15 11-3 21-5 30-5h11c8 0 18 1 29 2 18 0 31 1 39 1 5 0 20-1 46-3 13 0 24-1 35 0h28c16 2 29 5 38 10 5 2 10 8 16 16s10 15 14 23c3 7 8 17 14 31 5 13 9 21 12 25 31 67 68 132 113 197 2 3 5 7 9 14 4 6 7 11 10 15 3 3 7 8 11 14 5 5 9 10 13 13s8 7 12 10c5 4 10 6 14 7 5 1 10 1 15 0 22-4 35-51 37-141 1-16 2-30 2-43 0-59-6-100-19-123-4-9-11-16-18-21-8-5-18-10-30-15-12-4-21-8-28-12 12-23 32-38 60-45 29-7 68-11 117-11h64s10 0 31 1c21 0 32 1 33 3l26 7s8 4 24 11 21 13 15 17c7 14 12 31 13 50 0 6 1 12 2 17 0 16-2 38-4 63-3 34-5 55-5 63-2 19-3 37-3 56 0 14 0 30 2 46 3 35 15 60 36 73 7 0 14-2 20-4 6-3 12-7 19-14 6-6 11-11 13-14 3-2 8-9 15-20 8-10 12-16 13-17 38-49 76-115 114-197l10-27s5-10 14-32c10-21 14-29 15-23 0 5 7 0 19-17 13-5 28-8 45-8h11c17 0 35 1 56 2 26 2 45 3 57 3 7 0 18-1 33-1 15-1 28-2 39-2 12-1 24 0 36 0 12 1 23 4 31 8s13 9 17 15c2 5 3 10 3 16 0 23-14 58-42 105-14 23-28 45-42 64s-32 42-55 70c-22 27-37 46-44 56-2 1-8 9-17 22-10 13-17 22-21 29-5 6-9 15-14 27s-7 22-6 32c0 6 1 12 3 18 3 6 7 12 12 18 5 7 9 11 12 15 3 3 8 8 16 15 8 8 13 12 15 14 57 52 102 99 135 141 32 42 48 72 48 91 0 26-20 43-61 49-21 3-43 5-64 5-17 0-35-1-52-4-16-1-31-2-45-2-21 0-39 2-54 6h-8c-53-9-109-47-168-114-3-3-10-11-20-24-11-14-20-24-27-31s-16-14-28-21c-11-6-22-8-32-7-19 3-31 15-37 35s-10 44-11 72-5 47-11 59c-11 19-43 29-96 29-23 0-49-2-80-5-63-7-120-23-171-48-51-26-91-53-121-82s-63-66-98-112c-84-107-163-237-238-389-3-5-7-14-14-27-6-14-11-24-14-31s-7-17-11-28c-5-12-8-23-10-34s-3-22-3-32z"/></svg>