<?xml version="1.0" encoding="utf-8"?><svg xmlns="http://www.w3.org/2000/svg" xmlns:xlink="http://www.w3.org/1999/xlink"><symbol shape-rendering="geometricPrecision" text-rendering="geometricPrecision" image-rendering="optimizeQuality" fill-rule="evenodd" clip-rule="evenodd" viewBox="0 0 424 803" id="1" xmlns="http://www.w3.org/2000/svg"><path fill-rule="nonzero" d="M55 401L417 39c9-9 9-23 0-32-8-9-23-9-32 0L7 385c-9 9-9 24 0 32l378 379c5 4 11 7 16 7 6 0 12-2 16-7 9-9 9-23 0-32L55 401z"/></symbol><symbol shape-rendering="geometricPrecision" text-rendering="geometricPrecision" image-rendering="optimizeQuality" fill-rule="evenodd" clip-rule="evenodd" viewBox="0 0 425 803" id="10" xmlns="http://www.w3.org/2000/svg"><path fill-rule="nonzero" d="M370 402L7 39c-9-9-9-23 0-32s23-9 32 0l379 379c9 9 9 23 0 32L39 797c-5 4-10 6-16 6s-12-2-16-6c-9-9-9-24 0-32l363-363z"/></symbol><symbol shape-rendering="geometricPrecision" text-rendering="geometricPrecision" image-rendering="optimizeQuality" fill-rule="evenodd" clip-rule="evenodd" viewBox="0 0 179 177" id="11" xmlns="http://www.w3.org/2000/svg"><text x="70000" y="-35881" font-weight="bold" font-size="401.788" font-family="HelveticaNeueCyr" transform="rotate(-45.436 78185.192 65685.005)">+</text></symbol><symbol shape-rendering="geometricPrecision" text-rendering="geometricPrecision" image-rendering="optimizeQuality" fill-rule="evenodd" clip-rule="evenodd" viewBox="0 0 131 94" id="2" xmlns="http://www.w3.org/2000/svg"><path d="M128 4L45 86 4 45"/></symbol><symbol shape-rendering="geometricPrecision" text-rendering="geometricPrecision" image-rendering="optimizeQuality" fill-rule="evenodd" clip-rule="evenodd" viewBox="0 0 10685 9202" id="3" xmlns="http://www.w3.org/2000/svg"><path fill-rule="nonzero" fill-opacity=".502" d="M10685 0v653c-969 481-1654 1045-2059 1698-400 647-603 1502-603 2554 0 279 38 469 115 552 69 88 259 133 557 133 558 0 1027 177 1414 532 386 355 576 786 576 1293 0 482-177 900-538 1255-355 355-786 532-1281 532-830 0-1508-336-2034-1014-526-672-786-1552-786-2630 0-1312 431-2484 1287-3524C8195 1001 9310 323 10685 0zM4639 0v653c-982 481-1667 1039-2066 1679-399 634-596 1496-596 2573 0 292 38 482 121 564 82 83 272 121 570 121 545 0 1008 177 1394 532 387 355 577 786 577 1293 0 482-177 900-539 1255-354 355-785 532-1280 532-830 0-1508-336-2034-1014C260 7516 0 6636 0 5558c0-1312 431-2484 1299-3524C2167 1001 3277 323 4639 0z"/></symbol><symbol shape-rendering="geometricPrecision" text-rendering="geometricPrecision" image-rendering="optimizeQuality" fill-rule="evenodd" clip-rule="evenodd" viewBox="0 0 2002 2002" id="4" xmlns="http://www.w3.org/2000/svg"><path d="M0 0h2002v2002H0z"/><path d="M264 634c8-7 18-12 30-15 11-3 21-5 30-5h11c8 0 18 1 29 2 18 0 31 1 39 1 5 0 20-1 46-3 13 0 24-1 35 0h28c16 2 29 5 38 10 5 2 10 8 16 16s10 15 14 23c3 7 8 17 14 31 5 13 9 21 12 25 31 67 68 132 113 197 2 3 5 7 9 14 4 6 7 11 10 15 3 3 7 8 11 14 5 5 9 10 13 13s8 7 12 10c5 4 10 6 14 7 5 1 10 1 15 0 22-4 35-51 37-141 1-16 2-30 2-43 0-59-6-100-19-123-4-9-11-16-18-21-8-5-18-10-30-15-12-4-21-8-28-12 12-23 32-38 60-45 29-7 68-11 117-11h64s10 0 31 1c21 0 32 1 33 3l26 7s8 4 24 11 21 13 15 17c7 14 12 31 13 50 0 6 1 12 2 17 0 16-2 38-4 63-3 34-5 55-5 63-2 19-3 37-3 56 0 14 0 30 2 46 3 35 15 60 36 73 7 0 14-2 20-4 6-3 12-7 19-14 6-6 11-11 13-14 3-2 8-9 15-20 8-10 12-16 13-17 38-49 76-115 114-197l10-27s5-10 14-32c10-21 14-29 15-23 0 5 7 0 19-17 13-5 28-8 45-8h11c17 0 35 1 56 2 26 2 45 3 57 3 7 0 18-1 33-1 15-1 28-2 39-2 12-1 24 0 36 0 12 1 23 4 31 8s13 9 17 15c2 5 3 10 3 16 0 23-14 58-42 105-14 23-28 45-42 64s-32 42-55 70c-22 27-37 46-44 56-2 1-8 9-17 22-10 13-17 22-21 29-5 6-9 15-14 27s-7 22-6 32c0 6 1 12 3 18 3 6 7 12 12 18 5 7 9 11 12 15 3 3 8 8 16 15 8 8 13 12 15 14 57 52 102 99 135 141 32 42 48 72 48 91 0 26-20 43-61 49-21 3-43 5-64 5-17 0-35-1-52-4-16-1-31-2-45-2-21 0-39 2-54 6h-8c-53-9-109-47-168-114-3-3-10-11-20-24-11-14-20-24-27-31s-16-14-28-21c-11-6-22-8-32-7-19 3-31 15-37 35s-10 44-11 72-5 47-11 59c-11 19-43 29-96 29-23 0-49-2-80-5-63-7-120-23-171-48-51-26-91-53-121-82s-63-66-98-112c-84-107-163-237-238-389-3-5-7-14-14-27-6-14-11-24-14-31s-7-17-11-28c-5-12-8-23-10-34s-3-22-3-32z"/></symbol><symbol shape-rendering="geometricPrecision" text-rendering="geometricPrecision" image-rendering="optimizeQuality" fill-rule="evenodd" clip-rule="evenodd" viewBox="0 0 2041 2041" id="5" xmlns="http://www.w3.org/2000/svg"><path d="M0 0h2041v2041H0z"/><path d="M824 1021c4 5 2 39 2 46v713h310c1-188 0-380 0-569 0-3-1-183 0-187 0-2 1-2 1-3 1 0 197 2 204 0l3-1 27-260-234-1c-1-38 0-78 0-116 0-35-1-79 20-98l213-22V262c-41-2-88 0-130 0s-86-1-128 2c-80 5-145 29-192 69-68 109-94 15-95 427H670v261h154z"/></symbol><symbol shape-rendering="geometricPrecision" text-rendering="geometricPrecision" image-rendering="optimizeQuality" fill-rule="evenodd" clip-rule="evenodd" viewBox="0 0 2081 2081" id="6" xmlns="http://www.w3.org/2000/svg"><path d="M0 0h2081v2081H0z"/><path d="M1650 1107c5-4 2 2 5-7l9-30c46-1 78-5 116-20l77-53c-25 0-52 7-94 0l-84-18c7-4 17-4 27-6 10-1 19-2 29-5 20-4 34-9 50-16l65-64c-30 12-56 17-96 17-20 0-90-1-97-18-8-21-7-40-24-78-10-25-23-49-37-70-29-43-66-79-109-107l-178-50c11-10 53-19 69-23 79-21 72-50 53-55-25-7-85 15-111 23l48-50c-50 4-83 29-120 52l15-38c-47 16-131 128-155 173l-99 218c-9-4-68-64-112-91-40-23-92-48-137-69-109-51-186-81-297-122-6 98 57 151 135 204l-95 12c1 42 34 85 58 106 44 38 68 38 108 54l9 4c-66 11-46 4-103 41 0 26 57 81 99 91l95 12c-6 6-16 10-24 15-10 7-14 10-21 19-13 15-20 33-11 55l110 51c-6 11-42 40-54 48-66 46-140 78-234 82-67 3-132-10-183-30-59-24-83-44-128-78 13 22 43 54 61 73 172 183 451 284 743 232 178-32 292-93 396-170 18-12 59-49 73-64 46-47 86-97 115-155 9-17 40-77 38-95z"/></symbol><symbol shape-rendering="geometricPrecision" text-rendering="geometricPrecision" image-rendering="optimizeQuality" fill-rule="evenodd" clip-rule="evenodd" viewBox="0 0 2122 2122" id="7" xmlns="http://www.w3.org/2000/svg"><path d="M0 0h2122v2122H0z"/><path d="M916 1242c116-62 231-123 347-186-117-62-232-124-347-186v372zm135-639c141 6 275 11 409 17 31 1 64 2 95 7 68 12 117 67 127 139 15 109 22 218 20 328-2 90-8 179-22 268-10 66-64 124-127 136-23 4-47 4-70 6-188 11-375 20-563 13-112-5-223-11-335-18-68-3-131-63-142-135-19-121-26-242-22-363 2-83 8-164 21-246 11-72 72-128 144-131 157-8 314-15 465-21z"/></symbol><symbol shape-rendering="geometricPrecision" text-rendering="geometricPrecision" image-rendering="optimizeQuality" fill-rule="evenodd" clip-rule="evenodd" viewBox="0 0 555 555" id="8" xmlns="http://www.w3.org/2000/svg"><path d="M0 0h555v555H0V0zm43 43h470v470H43V43z"/></symbol><symbol shape-rendering="geometricPrecision" text-rendering="geometricPrecision" image-rendering="optimizeQuality" fill-rule="evenodd" clip-rule="evenodd" viewBox="0 0 172 23" id="9" xmlns="http://www.w3.org/2000/svg"><path d="M0 0h172.319v22.834H0z"/></symbol><symbol shape-rendering="geometricPrecision" text-rendering="geometricPrecision" image-rendering="optimizeQuality" fill-rule="evenodd" clip-rule="evenodd" viewBox="0 0 1319 2540" id="wb-facebook" xmlns="http://www.w3.org/2000/svg"><path fill-rule="nonzero" d="M856 2540V1381h389l58-451H856V642c0-131 36-220 224-220h239V18c-41-6-183-18-348-18-345 0-581 210-581 597v333H0v451h390v1159h466z"/></symbol><symbol shape-rendering="geometricPrecision" text-rendering="geometricPrecision" image-rendering="optimizeQuality" fill-rule="evenodd" clip-rule="evenodd" viewBox="0 0 10275 6527" id="wb-google+" xmlns="http://www.w3.org/2000/svg"><path d="M3264 2797c-2 370 0 741 1 1112 622 20 1245 11 1866 20-274 1379-2149 1826-3142 926-1020-790-972-2523 89-3257 741-592 1796-445 2538 68 291-270 564-559 827-858C4826 316 4069-34 3264 3 1582-53 37 1419 9 3100-99 4475 805 5822 2081 6308c1271 489 2901 156 3713-986 536-721 651-1650 589-2523-1041-7-2080-6-3119-2zm6079-5c-3-310-5-622-6-932h-927c-4 310-7 620-8 932-312 1-622 3-932 6v927c310 3 622 7 932 9 3 311 3 621 6 931h929c1-310 3-620 6-932 312-3 622-5 932-8v-927c-310-3-622-3-932-6z"/></symbol><symbol shape-rendering="geometricPrecision" text-rendering="geometricPrecision" image-rendering="optimizeQuality" fill-rule="evenodd" clip-rule="evenodd" viewBox="0 0 5124 5124" id="wb-instagram" xmlns="http://www.w3.org/2000/svg"><path d="M4231 1199c0 170-137 307-306 307s-306-137-306-307c0-169 137-306 306-306s306 137 306 306zM2562 3414c-470 0-851-382-851-852s381-851 851-851 851 381 851 851-381 852-851 852zm0-2163c-724 0-1311 587-1311 1311s587 1312 1311 1312c724-1 1311-588 1311-1312s-587-1311-1311-1311zM1509 24c-272 13-457 56-620 119-168 65-310 153-452 294-142 142-229 285-294 453-64 162-107 348-119 619-32 699-32 1408 0 2106 12 272 55 457 119 620 65 168 152 310 294 452s284 229 452 295c163 63 348 106 620 118 698 32 1408 32 2106 0 272-12 457-55 620-118 167-66 310-153 452-295s229-284 294-452c63-163 107-348 119-620 32-698 32-1407 0-2106-12-271-56-457-119-619-65-168-152-311-294-453-142-141-285-229-452-294-163-63-348-106-620-119-698-32-1408-32-2106 0zm2085 460c249 11 384 53 474 88 119 46 204 101 293 191 90 89 145 174 192 293 35 90 76 226 87 475 32 683 32 1379 0 2063-11 249-52 384-87 474-47 119-102 205-192 294-89 89-174 145-293 191-90 35-225 76-474 88-684 31-1380 31-2064 0-249-12-384-53-474-88-119-46-204-102-294-191-89-89-144-174-191-294-35-90-76-225-88-474-30-684-30-1379 0-2063 12-249 53-385 88-475 47-119 102-204 191-293 90-90 175-145 294-191 90-35 225-77 474-88 684-31 1380-31 2064 0z"/></symbol><symbol shape-rendering="geometricPrecision" text-rendering="geometricPrecision" image-rendering="optimizeQuality" fill-rule="evenodd" clip-rule="evenodd" viewBox="0 0 7201 4216" id="wb-vk" xmlns="http://www.w3.org/2000/svg"><path fill-rule="nonzero" d="M5982 2067S6931 729 7025 289c32-157-37-245-201-245h-823c-188 0-258 82-314 201 0 0-445 948-987 1546-173 193-262 251-358 251-77 0-113-64-113-239V276c0-213-25-276-201-276H2708c-100 0-163 58-163 138 0 201 308 247 308 792v1125c0 226-13 314-120 314-282 0-955-974-1332-2080C1326 63 1244 0 1030 0H207C88 0 0 82 0 201c0 220 258 1238 1269 2602 679 917 1571 1413 2376 1413 490 0 609-81 609-289v-703c0-176 69-252 170-252 113 0 313 37 779 497 553 528 591 747 892 747h924c94 0 182-44 182-201 0-207-270-578-685-1018-169-226-446-471-534-584-125-132-88-207 0-346z"/></symbol></svg>