<svg xmlns="http://www.w3.org/2000/svg" width="47" height="47" shape-rendering="geometricPrecision" text-rendering="geometricPrecision" image-rendering="optimizeQuality" fill-rule="evenodd" clip-rule="evenodd" viewBox="0 0 2041 2041"><path fill="none" d="M0 0h2041v2041H0z"/><path fill="#CCC" d="M824 1021c4 5 2 39 2 46v713h310c1-188 0-380 0-569 0-3-1-183 0-187 0-2 1-2 1-3 1 0 197 2 204 0l3-1 27-260-234-1c-1-38 0-78 0-116 0-35-1-79 20-98l213-22V262c-41-2-88 0-130 0s-86-1-128 2c-80 5-145 29-192 69-68 109-94 15-95 427H670v261h154z"/></svg>