<svg xmlns="http://www.w3.org/2000/svg" width="28" height="18" shape-rendering="geometricPrecision" text-rendering="geometricPrecision" image-rendering="optimizeQuality" fill-rule="evenodd" clip-rule="evenodd" viewBox="0 0 10275 6527"><path fill="#333" d="M3264 2797c-2 370 0 741 1 1112 622 20 1245 11 1866 20-274 1379-2149 1826-3142 926-1020-790-972-2523 89-3257 741-592 1796-445 2538 68 291-270 564-559 827-858C4826 316 4069-34 3264 3 1582-53 37 1419 9 3100-99 4475 805 5822 2081 6308c1271 489 2901 156 3713-986 536-721 651-1650 589-2523-1041-7-2080-6-3119-2zm6079-5c-3-310-5-622-6-932h-927c-4 310-7 620-8 932-312 1-622 3-932 6v927c310 3 622 7 932 9 3 311 3 621 6 931h929c1-310 3-620 6-932 312-3 622-5 932-8v-927c-310-3-622-3-932-6z"/></svg>