<svg xmlns="http://www.w3.org/2000/svg" width="24" height="14" shape-rendering="geometricPrecision" text-rendering="geometricPrecision" image-rendering="optimizeQuality" fill-rule="evenodd" clip-rule="evenodd" viewBox="0 0 7201 4216"><path fill="#333" fill-rule="nonzero" d="M5982 2067S6931 729 7025 289c32-157-37-245-201-245h-823c-188 0-258 82-314 201 0 0-445 948-987 1546-173 193-262 251-358 251-77 0-113-64-113-239V276c0-213-25-276-201-276H2708c-100 0-163 58-163 138 0 201 308 247 308 792v1125c0 226-13 314-120 314-282 0-955-974-1332-2080C1326 63 1244 0 1030 0H207C88 0 0 82 0 201c0 220 258 1238 1269 2602 679 917 1571 1413 2376 1413 490 0 609-81 609-289v-703c0-176 69-252 170-252 113 0 313 37 779 497 553 528 591 747 892 747h924c94 0 182-44 182-201 0-207-270-578-685-1018-169-226-446-471-534-584-125-132-88-207 0-346z"/></svg>